<svg width="72" height="72" viewBox="0 0 72 72" fill="none" xmlns="http://www.w3.org/2000/svg">
    <g clip-path="url(#clip0_2502_242)">
        <path
            d="M55.6 14H12.4C9.41766 14 7 16.4177 7 19.4V62.6C7 65.5823 9.41766 68 12.4 68H55.6C58.5823 68 61 65.5823 61 62.6V19.4C61 16.4177 58.5823 14 55.6 14Z"
            fill="url(#paint0_linear_2502_242)" />
        <path
            d="M55.6 14H12.4C9.41766 14 7 16.4177 7 19.4V62.6C7 65.5823 9.41766 68 12.4 68H55.6C58.5823 68 61 65.5823 61 62.6V19.4C61 16.4177 58.5823 14 55.6 14Z"
            fill="url(#paint1_radial_2502_242)" fill-opacity="0.7" />
        <path
            d="M55.6 14H12.4C9.41766 14 7 16.4177 7 19.4V62.6C7 65.5823 9.41766 68 12.4 68H55.6C58.5823 68 61 65.5823 61 62.6V19.4C61 16.4177 58.5823 14 55.6 14Z"
            fill="url(#paint2_radial_2502_242)" fill-opacity="0.7" />
        <path
            d="M34 56C29.038 56 25 51.962 25 47V46C25 44.344 26.342 43 28 43C29.658 43 31 44.344 31 46V47C31 48.654 32.346 50 34 50C35.654 50 37 48.654 37 47V29C37 27.342 38.342 26 40 26C41.658 26 43 27.342 43 29V47C43 51.962 38.962 56 34 56Z"
            fill="url(#paint3_linear_2502_242)" />
        <path
            d="M46.55 19.674C46.374 19.446 46.182 19.228 45.978 19.022C45.214 18.256 44.284 17.68 43.258 17.338L39.89 16.244C39.63 16.152 39.406 15.982 39.246 15.758C39.086 15.534 39.002 15.266 39.002 14.99C39.002 14.714 39.088 14.446 39.246 14.222C39.406 13.998 39.63 13.828 39.89 13.736L43.258 12.642C44.27 12.294 45.186 11.714 45.938 10.954C46.668 10.214 47.222 9.318 47.558 8.334L47.586 8.25L48.68 4.884C48.772 4.624 48.942 4.4 49.166 4.242C49.388 4.086 49.658 4 49.932 4C50.206 4 50.476 4.086 50.7 4.244C50.924 4.402 51.094 4.628 51.186 4.886L52.28 8.252C52.62 9.276 53.194 10.204 53.958 10.968C54.722 11.73 55.652 12.304 56.676 12.644L60.044 13.738L60.112 13.754C60.372 13.846 60.596 14.016 60.756 14.24C60.916 14.464 61 14.732 61 15.008C61 15.284 60.914 15.552 60.756 15.776C60.596 16 60.372 16.17 60.112 16.262L56.744 17.356C55.72 17.696 54.79 18.27 54.026 19.032C53.262 19.794 52.688 20.724 52.348 21.748L51.254 25.114C51.244 25.142 51.234 25.17 51.222 25.196C51.126 25.42 50.968 25.614 50.768 25.756C50.544 25.914 50.274 26 50 26C49.726 26 49.456 25.914 49.232 25.756C49.008 25.598 48.838 25.372 48.746 25.114L47.652 21.748C47.404 20.998 47.032 20.296 46.55 19.674Z"
            fill="url(#paint4_linear_2502_242)" />
        <path
            d="M64.642 28.716L66.48 29.312L66.516 29.322C66.658 29.372 66.78 29.464 66.866 29.586C66.952 29.708 67 29.854 67 30.004C67 30.154 66.954 30.3 66.866 30.422C66.78 30.544 66.656 30.636 66.516 30.686L64.678 31.282C64.12 31.468 63.612 31.78 63.196 32.196C62.78 32.612 62.466 33.12 62.28 33.678L61.682 35.514C61.632 35.656 61.54 35.778 61.416 35.864C61.294 35.95 61.146 35.998 60.996 35.998C60.846 35.998 60.7 35.952 60.576 35.864C60.454 35.778 60.36 35.654 60.31 35.514L59.712 33.678C59.528 33.118 59.214 32.61 58.798 32.192C58.382 31.774 57.874 31.46 57.314 31.274L55.476 30.678C55.334 30.628 55.212 30.536 55.126 30.414C55.04 30.292 54.992 30.146 54.992 29.996C54.992 29.846 55.038 29.7 55.126 29.578C55.212 29.456 55.336 29.364 55.476 29.314L57.314 28.718C57.866 28.528 58.366 28.212 58.776 27.796C59.186 27.38 59.494 26.876 59.676 26.322L60.274 24.486C60.324 24.344 60.416 24.222 60.54 24.136C60.662 24.05 60.81 24.002 60.958 24.002C61.106 24.002 61.254 24.048 61.378 24.136C61.5 24.222 61.594 24.346 61.644 24.486L62.242 26.322C62.428 26.88 62.742 27.388 63.158 27.804C63.574 28.22 64.082 28.534 64.64 28.718L64.642 28.716Z"
            fill="url(#paint5_linear_2502_242)" />
    </g>
    <defs>
        <linearGradient id="paint0_linear_2502_242" x1="15.4375" y1="17.375" x2="50.875"
            y2="69.6875" gradientUnits="userSpaceOnUse">
            <stop stop-color="#F83F54" />
            <stop offset="1" stop-color="#CA2134" />
        </linearGradient>
        <radialGradient id="paint1_radial_2502_242" cx="0" cy="0" r="1"
            gradientUnits="userSpaceOnUse" gradientTransform="translate(52 14) rotate(90) scale(22)">
            <stop offset="0.315" stop-color="#8B1321" />
            <stop offset="0.741688" stop-color="#8B1321" stop-opacity="0" />
        </radialGradient>
        <radialGradient id="paint2_radial_2502_242" cx="0" cy="0" r="1"
            gradientUnits="userSpaceOnUse"
            gradientTransform="translate(61 31.5) rotate(90) scale(7 7.85204)">
            <stop stop-color="#8B1321" />
            <stop offset="1" stop-color="#8B1321" stop-opacity="0" />
        </radialGradient>
        <linearGradient id="paint3_linear_2502_242" x1="26.0451" y1="42.4278" x2="40.6501"
            y2="50.8891" gradientUnits="userSpaceOnUse">
            <stop stop-color="#FDFDFD" />
            <stop offset="1" stop-color="#FECBE6" />
        </linearGradient>
        <linearGradient id="paint4_linear_2502_242" x1="33.9608" y1="5.41931" x2="53.885"
            y2="31.1532" gradientUnits="userSpaceOnUse">
            <stop offset="0.2" stop-color="#FFCD0F" />
            <stop offset="0.990707" stop-color="#E67505" />
        </linearGradient>
        <linearGradient id="paint5_linear_2502_242" x1="52.2402" y1="24.7759" x2="63.1013"
            y2="38.8194" gradientUnits="userSpaceOnUse">
            <stop offset="0.2" stop-color="#FFCD0F" />
            <stop offset="0.990707" stop-color="#E67505" />
        </linearGradient>
        <clipPath id="clip0_2502_242">
            <rect width="64" height="64" fill="white" transform="translate(4 4)" />
        </clipPath>
    </defs>
</svg>