<svg width="16" height="16" viewBox="0 0 24 24" fill="none" xmlns="http://www.w3.org/2000/svg">
    <g clip-path="url(#clip0_2502_262)">
        <path
            d="M13.803 4.1745L14.9505 4.548C14.9955 4.563 15.0405 4.5795 15.0855 4.5975C15.3825 4.7175 15.6525 4.8945 15.879 5.1225C16.014 5.259 16.1325 5.409 16.23 5.5725C16.32 5.7225 16.3935 5.883 16.449 6.051L16.8225 7.1985C16.854 7.287 16.911 7.3635 16.9875 7.4175C17.064 7.4715 17.1555 7.5015 17.25 7.5015H17.256C17.3475 7.5015 17.4375 7.4715 17.5125 7.4175C17.5635 7.3815 17.6055 7.335 17.6385 7.2825C17.655 7.2555 17.6685 7.227 17.679 7.1985L18.0525 6.051C18.168 5.7015 18.3645 5.385 18.624 5.1255C18.8835 4.866 19.2015 4.6695 19.551 4.554L20.6985 4.1805C20.787 4.149 20.8635 4.092 20.9175 4.0155C20.9715 3.939 21 3.8475 21 3.7545C21 3.6615 20.9715 3.57 20.9175 3.4935C20.8635 3.417 20.787 3.3585 20.6985 3.3285L20.676 3.3225L19.5285 2.949C19.29 2.8695 19.0665 2.754 18.8655 2.6055C18.7725 2.5365 18.684 2.46 18.6015 2.3775C18.342 2.118 18.1455 1.8 18.03 1.452L17.6565 0.3045C17.625 0.216 17.568 0.1395 17.4915 0.0855C17.421 0.036 17.3385 0.0075 17.253 0.003C17.2425 0 17.235 0 17.2275 0C17.133 0 17.0415 0.0285 16.965 0.0825C16.8885 0.1365 16.83 0.213 16.8 0.3015L16.4265 1.449C16.3125 1.7955 16.1205 2.1105 15.864 2.37C15.8265 2.4075 15.789 2.4435 15.75 2.478C15.5175 2.685 15.246 2.844 14.9505 2.946L13.803 3.3195C13.7145 3.351 13.638 3.408 13.584 3.4845C13.53 3.561 13.5 3.6525 13.5 3.7455C13.5 3.8385 13.5285 3.9315 13.584 4.008C13.6395 4.0845 13.7145 4.1445 13.803 4.1745Z"
            fill="#424242" />
        <path
            d="M19.5 12.7365V18.75C19.5 19.9905 18.4905 21 17.25 21H5.25C4.0095 21 3 19.9905 3 18.75V6.75C3 5.5095 4.0095 4.5 5.25 4.5H12.171C12.0705 4.2615 12 4.0125 12 3.747C12 3.4845 12.069 3.237 12.1695 3H5.25C3.1815 3 1.5 4.683 1.5 6.75V18.75C1.5 20.817 3.1815 22.5 5.25 22.5H17.25C19.3185 22.5 21 20.817 21 18.75V13.5C20.6145 13.5 20.244 13.383 19.9275 13.161C19.7595 13.0425 19.6185 12.8985 19.5 12.7365Z"
            fill="#424242" />
        <path
            d="M23.934 8.793C23.8905 8.7315 23.829 8.685 23.7585 8.661L23.7405 8.6565L22.8225 8.358C22.5435 8.265 22.29 8.109 22.0815 7.9005C21.873 7.692 21.717 7.4385 21.624 7.1595L21.3255 6.2415C21.3 6.171 21.2535 6.1095 21.1935 6.066C21.132 6.0225 21.0585 6 20.9835 6C20.9085 6 20.835 6.024 20.7735 6.066C20.712 6.1095 20.6655 6.171 20.6415 6.2415L20.343 7.1595C20.2515 7.437 20.0985 7.689 19.893 7.896C19.6875 8.1045 19.4385 8.262 19.1625 8.3565L18.2445 8.655C18.174 8.6805 18.1125 8.727 18.069 8.787C18.0255 8.8485 18.003 8.922 18.003 8.997C18.003 9.072 18.027 9.1455 18.069 9.207C18.1125 9.2685 18.174 9.315 18.2445 9.339L19.1625 9.6375C19.443 9.7305 19.6965 9.888 19.905 10.0965C20.1135 10.305 20.2695 10.56 20.3625 10.839L20.661 11.757C20.6865 11.8275 20.7315 11.889 20.793 11.9325C20.8545 11.976 20.928 11.9985 21.003 11.9985C21.078 11.9985 21.1515 11.9745 21.213 11.9325C21.2745 11.889 21.321 11.8275 21.345 11.757L21.6435 10.839C21.7365 10.56 21.8925 10.3065 22.101 10.098C22.3095 9.8895 22.563 9.7335 22.842 9.6405L23.76 9.342C23.8305 9.3165 23.892 9.2715 23.9355 9.21C23.979 9.1485 24.0015 9.075 24.0015 9C24.0015 8.925 23.9775 8.8515 23.9355 8.79L23.934 8.793Z"
            fill="#424242" />
        <path
            d="M9.75 15V14.25C9.75 13.836 9.414 13.5 9 13.5C8.586 13.5 8.25 13.836 8.25 14.25V15C8.25 16.6545 9.5955 18 11.25 18C12.9045 18 14.25 16.6545 14.25 15V8.25C14.25 7.836 13.914 7.5 13.5 7.5C13.086 7.5 12.75 7.836 12.75 8.25V15C12.75 15.8265 12.078 16.5 11.25 16.5C10.422 16.5 9.75 15.8265 9.75 15Z"
            fill="#424242" />
    </g>
    <defs>
        <clipPath id="clip0_2502_262">
            <rect width="24" height="24" fill="white" />
        </clipPath>
    </defs>
</svg>